<svg width="419" height="18" viewBox="0 0 419 18" fill="none" xmlns="http://www.w3.org/2000/svg">
<path d="M199.28 15.224C198.896 15.224 198.533 15.176 198.192 15.08C197.861 14.9947 197.568 14.856 197.312 14.664C197.067 14.4613 196.869 14.2107 196.72 13.912C196.581 13.6027 196.512 13.24 196.512 12.824C196.512 12.248 196.64 11.8 196.896 11.48C197.152 11.1493 197.488 10.8987 197.904 10.728C198.331 10.5573 198.805 10.44 199.328 10.376C199.861 10.3013 200.4 10.232 200.944 10.168C201.147 10.1467 201.328 10.12 201.488 10.088C201.659 10.056 201.797 10.0027 201.904 9.928C202.011 9.84267 202.091 9.73067 202.144 9.592C202.208 9.45333 202.24 9.272 202.24 9.048C202.24 8.70667 202.181 8.42933 202.064 8.216C201.957 7.992 201.803 7.816 201.6 7.688C201.408 7.56 201.179 7.47467 200.912 7.432C200.656 7.37867 200.379 7.352 200.08 7.352C199.44 7.352 198.917 7.50667 198.512 7.816C198.107 8.11467 197.893 8.6 197.872 9.272H196.864C196.928 8.30133 197.259 7.59733 197.856 7.16C198.464 6.72267 199.248 6.504 200.208 6.504C200.571 6.504 200.933 6.54133 201.296 6.616C201.659 6.68 201.984 6.808 202.272 7C202.56 7.192 202.795 7.464 202.976 7.816C203.157 8.15733 203.248 8.60533 203.248 9.16V13.544C203.248 13.9493 203.445 14.152 203.84 14.152C203.968 14.152 204.075 14.1307 204.16 14.088V14.936C204.043 14.9573 203.936 14.9733 203.84 14.984C203.755 14.9947 203.643 15 203.504 15C203.248 15 203.04 14.968 202.88 14.904C202.731 14.8293 202.613 14.728 202.528 14.6C202.443 14.472 202.384 14.3227 202.352 14.152C202.331 13.9707 202.32 13.7733 202.32 13.56H202.288C202.107 13.8267 201.92 14.0667 201.728 14.28C201.547 14.4827 201.339 14.6533 201.104 14.792C200.88 14.9307 200.619 15.0373 200.32 15.112C200.021 15.1867 199.675 15.224 199.28 15.224ZM199.36 14.392C199.744 14.392 200.112 14.3333 200.464 14.216C200.816 14.0987 201.12 13.928 201.376 13.704C201.643 13.48 201.851 13.208 202 12.888C202.16 12.568 202.24 12.2053 202.24 11.8V10.488H202.208C202.144 10.6053 202.021 10.6907 201.84 10.744C201.659 10.7973 201.499 10.8347 201.36 10.856C200.933 10.9307 200.491 11 200.032 11.064C199.584 11.1173 199.173 11.2027 198.8 11.32C198.427 11.4373 198.117 11.608 197.872 11.832C197.637 12.056 197.52 12.3653 197.52 12.76C197.52 13.016 197.568 13.2453 197.664 13.448C197.771 13.64 197.909 13.8107 198.08 13.96C198.251 14.0987 198.443 14.2053 198.656 14.28C198.88 14.3547 199.115 14.392 199.36 14.392ZM208.825 15.224C208.068 15.224 207.444 15.0853 206.953 14.808C206.462 14.5307 206.073 14.1627 205.785 13.704C205.497 13.2453 205.294 12.7173 205.177 12.12C205.06 11.5227 205.001 10.904 205.001 10.264C205.001 9.86933 205.017 9.45867 205.049 9.032C205.081 8.59467 205.134 8.168 205.209 7.752C205.294 7.32533 205.401 6.92 205.529 6.536C205.657 6.152 205.822 5.80533 206.025 5.496C206.398 4.92 206.846 4.50933 207.369 4.264C207.892 4.01867 208.548 3.86933 209.337 3.816L210.105 3.768C210.532 3.74667 210.82 3.704 210.969 3.64C211.118 3.576 211.225 3.47467 211.289 3.336H212.409C212.324 3.82667 212.105 4.16267 211.753 4.344C211.412 4.51467 210.889 4.62133 210.185 4.664L208.969 4.744C208.03 4.808 207.316 5.144 206.825 5.752C206.334 6.36 205.998 7.304 205.817 8.584H205.865C206.142 8.02933 206.553 7.58667 207.097 7.256C207.641 6.91467 208.249 6.744 208.921 6.744C209.476 6.744 209.977 6.84 210.425 7.032C210.884 7.224 211.278 7.50133 211.609 7.864C211.94 8.22667 212.196 8.66933 212.377 9.192C212.558 9.71467 212.649 10.3013 212.649 10.952C212.649 11.592 212.558 12.1787 212.377 12.712C212.196 13.2347 211.934 13.6827 211.593 14.056C211.262 14.4293 210.862 14.7173 210.393 14.92C209.924 15.1227 209.401 15.224 208.825 15.224ZM208.825 14.392C209.23 14.392 209.604 14.312 209.945 14.152C210.297 13.9813 210.596 13.7467 210.841 13.448C211.097 13.1387 211.294 12.776 211.433 12.36C211.572 11.9333 211.641 11.464 211.641 10.952C211.641 10.4507 211.572 9.992 211.433 9.576C211.294 9.16 211.097 8.808 210.841 8.52C210.596 8.22133 210.302 7.992 209.961 7.832C209.63 7.66133 209.268 7.576 208.873 7.576C208.446 7.576 208.057 7.656 207.705 7.816C207.353 7.976 207.049 8.20533 206.793 8.504C206.548 8.792 206.356 9.144 206.217 9.56C206.078 9.976 206.009 10.44 206.009 10.952C206.009 11.464 206.078 11.9333 206.217 12.36C206.356 12.776 206.548 13.1387 206.793 13.448C207.049 13.7467 207.348 13.9813 207.689 14.152C208.041 14.312 208.42 14.392 208.825 14.392ZM217.636 15.224C217.006 15.224 216.446 15.112 215.956 14.888C215.476 14.6533 215.07 14.3387 214.74 13.944C214.409 13.5493 214.158 13.0907 213.988 12.568C213.817 12.0347 213.732 11.4693 213.732 10.872C213.732 10.2853 213.817 9.72533 213.988 9.192C214.158 8.65867 214.409 8.19467 214.74 7.8C215.07 7.40533 215.476 7.09067 215.956 6.856C216.446 6.62133 217.006 6.504 217.636 6.504C218.265 6.504 218.82 6.62133 219.3 6.856C219.79 7.09067 220.201 7.40533 220.532 7.8C220.862 8.19467 221.113 8.65867 221.284 9.192C221.454 9.72533 221.54 10.2853 221.54 10.872C221.54 11.4693 221.454 12.0347 221.284 12.568C221.113 13.0907 220.862 13.5493 220.532 13.944C220.201 14.3387 219.79 14.6533 219.3 14.888C218.82 15.112 218.265 15.224 217.636 15.224ZM217.636 14.392C218.116 14.392 218.537 14.2907 218.9 14.088C219.262 13.8853 219.561 13.6187 219.796 13.288C220.041 12.9573 220.222 12.584 220.34 12.168C220.468 11.7413 220.532 11.3093 220.532 10.872C220.532 10.4347 220.468 10.008 220.34 9.592C220.222 9.16533 220.041 8.78667 219.796 8.456C219.561 8.12533 219.262 7.85867 218.9 7.656C218.537 7.45333 218.116 7.352 217.636 7.352C217.156 7.352 216.734 7.45333 216.372 7.656C216.009 7.85867 215.705 8.12533 215.46 8.456C215.225 8.78667 215.044 9.16533 214.916 9.592C214.798 10.008 214.74 10.4347 214.74 10.872C214.74 11.3093 214.798 11.7413 214.916 12.168C215.044 12.584 215.225 12.9573 215.46 13.288C215.705 13.6187 216.009 13.8853 216.372 14.088C216.734 14.2907 217.156 14.392 217.636 14.392Z" fill="#9B9B9B"/>
<line x1="4.37114e-08" y1="10.5" x2="185" y2="10.5" stroke="#9B9B9B"/>
<line x1="234" y1="10.5" x2="419" y2="10.5" stroke="#9B9B9B"/>
</svg>
